{
    "asset": {
        "version": "2.0",
        "generator": "Open Asset Import Library (assimp v5.4.0)"
    },
    "extensionsUsed": [
        "KHR_materials_volume",
        "FB_ngon_encoding"
    ],
    "accessors": [
        {
            "bufferView": 0,
            "byteOffset": 0,
            "componentType": 5126,
            "count": 1118,
            "type": "VEC3",
            "max": [
                0.02603965438902378,
                0.01452928502112627,
                -0.011422518640756607
            ],
            "min": [
                -0.02603965438902378,
                -0.004936910234391689,
                -0.030888721346855164
            ]
        },
        {
            "bufferView": 1,
            "byteOffset": 0,
            "componentType": 5126,
            "count": 1118,
            "type": "VEC3",
            "max": [
                1.0,
                1.0,
                1.0
            ],
            "min": [
                -1.0,
                -1.0,
                -1.0
            ]
        },
        {
            "bufferView": 2,
            "byteOffset": 0,
            "componentType": 5126,
            "count": 1118,
            "type": "VEC2",
            "max": [
                1.0,
                1.0
            ],
            "min": [
                0.0,
                0.0
            ]
        },
        {
            "bufferView": 3,
            "byteOffset": 0,
            "componentType": 5125,
            "count": 5760,
            "type": "SCALAR",
            "max": [
                1117
            ],
            "min": [
                0
            ]
        },
        {
            "bufferView": 4,
            "byteOffset": 0,
            "componentType": 5126,
            "count": 41480,
            "type": "VEC3",
            "max": [
                0.08849290013313293,
                0.11882447451353073,
                0.07168316841125488
            ],
            "min": [
                -0.08848239481449127,
                -0.08746589720249176,
                -0.0544997863471508
            ]
        },
        {
            "bufferView": 5,
            "byteOffset": 0,
            "componentType": 5126,
            "count": 41480,
            "type": "VEC3",
            "max": [
                0.9999769926071167,
                0.9999660849571228,
                0.9999984502792358
            ],
            "min": [
                -0.9999925494194031,
                -0.9999743700027466,
                -0.9999697804450989
            ]
        },
        {
            "bufferView": 6,
            "byteOffset": 0,
            "componentType": 5126,
            "count": 41480,
            "type": "VEC2",
            "max": [
                0.9952801465988159,
                0.9935110211372375
            ],
            "min": [
                0.0069043259136378765,
                0.007398009300231934
            ]
        },
        {
            "bufferView": 7,
            "byteOffset": 0,
            "componentType": 5126,
            "count": 41480,
            "type": "VEC2",
            "max": [
                0.4117947518825531,
                1.0
            ],
            "min": [
                0.0,
                0.6863774061203003
            ]
        },
        {
            "bufferView": 8,
            "byteOffset": 0,
            "componentType": 5126,
            "count": 41480,
            "type": "VEC2",
            "max": [
                0.5855658650398254,
                1.0
            ],
            "min": [
                0.0,
                0.16687846183776855
            ]
        },
        {
            "bufferView": 9,
            "byteOffset": 0,
            "componentType": 5125,
            "count": 243648,
            "type": "SCALAR",
            "max": [
                41479
            ],
            "min": [
                0
            ]
        },
        {
            "bufferView": 10,
            "byteOffset": 0,
            "componentType": 5126,
            "count": 2474,
            "type": "VEC3",
            "max": [
                0.054773904383182526,
                0.1267666220664978,
                0.0703636184334755
            ],
            "min": [
                -0.05400560051202774,
                -0.01567688398063183,
                -0.05059877783060074
            ]
        },
        {
            "bufferView": 11,
            "byteOffset": 0,
            "componentType": 5126,
            "count": 2474,
            "type": "VEC3",
            "max": [
                0.9997797608375549,
                0.9995697736740112,
                0.999351978302002
            ],
            "min": [
                -0.9994308948516846,
                -0.999564528465271,
                -0.9995953440666199
            ]
        },
        {
            "bufferView": 12,
            "byteOffset": 0,
            "componentType": 5126,
            "count": 2474,
            "type": "VEC2",
            "max": [
                0.9934974312782288,
                0.9674045443534851
            ],
            "min": [
                0.010682042688131332,
                0.030399203300476074
            ]
        },
        {
            "bufferView": 13,
            "byteOffset": 0,
            "componentType": 5125,
            "count": 13872,
            "type": "SCALAR",
            "max": [
                2473
            ],
            "min": [
                0
            ]
        },
        {
            "bufferView": 14,
            "byteOffset": 0,
            "componentType": 5126,
            "count": 70125,
            "type": "VEC3",
            "max": [
                0.0929238349199295,
                -0.0013847402296960354,
                0.04727204144001007
            ],
            "min": [
                -0.0421723835170269,
                -0.15902765095233917,
                -0.08381260186433792
            ]
        },
        {
            "bufferView": 15,
            "byteOffset": 0,
            "componentType": 5126,
            "count": 70125,
            "type": "VEC3",
            "max": [
                0.9999799132347107,
                0.999635636806488,
                0.9999992847442627
            ],
            "min": [
                -0.9999719858169556,
                -0.9999678730964661,
                -0.9999645948410034
            ]
        },
        {
            "bufferView": 16,
            "byteOffset": 0,
            "componentType": 5126,
            "count": 70125,
            "type": "VEC2",
            "max": [
                1.0,
                1.0
            ],
            "min": [
                0.0,
                0.0
            ]
        },
        {
            "bufferView": 17,
            "byteOffset": 0,
            "componentType": 5125,
            "count": 358110,
            "type": "SCALAR",
            "max": [
                70124
            ],
            "min": [
                0
            ]
        },
        {
            "bufferView": 18,
            "byteOffset": 0,
            "componentType": 5126,
            "count": 6452,
            "type": "VEC3",
            "max": [
                0.030999572947621346,
                0.005838797893375158,
                0.0018149178940802813
            ],
            "min": [
                -0.031080856919288635,
                -0.0021510787773877382,
                -0.014014380052685738
            ]
        },
        {
            "bufferView": 19,
            "byteOffset": 0,
            "componentType": 5126,
            "count": 6452,
            "type": "VEC3",
            "max": [
                0.997666597366333,
                0.9995961785316467,
                0.9997597336769104
            ],
            "min": [
                -0.9978315830230713,
                -0.9995376467704773,
                -0.9997912049293518
            ]
        },
        {
            "bufferView": 20,
            "byteOffset": 0,
            "componentType": 5126,
            "count": 6452,
            "type": "VEC2",
            "max": [
                1.0,
                1.0
            ],
            "min": [
                0.0,
                0.0
            ]
        },
        {
            "bufferView": 21,
            "byteOffset": 0,
            "componentType": 5125,
            "count": 29904,
            "type": "SCALAR",
            "max": [
                6451
            ],
            "min": [
                0
            ]
        }
    ],
    "buffers": [
        {
            "byteLength": 7161624,
            "uri": "DinklageLikenessSculpt_0.bin"
        }
    ],
    "bufferViews": [
        {
            "buffer": 0,
            "byteOffset": 0,
            "byteLength": 13416,
            "target": 34962
        },
        {
            "buffer": 0,
            "byteOffset": 13416,
            "byteLength": 13416,
            "target": 34962
        },
        {
            "buffer": 0,
            "byteOffset": 26832,
            "byteLength": 8944,
            "target": 34962
        },
        {
            "buffer": 0,
            "byteOffset": 35776,
            "byteLength": 23040,
            "target": 34963
        },
        {
            "buffer": 0,
            "byteOffset": 58816,
            "byteLength": 497760,
            "target": 34962
        },
        {
            "buffer": 0,
            "byteOffset": 556576,
            "byteLength": 497760,
            "target": 34962
        },
        {
            "buffer": 0,
            "byteOffset": 1054336,
            "byteLength": 331840,
            "target": 34962
        },
        {
            "buffer": 0,
            "byteOffset": 1386176,
            "byteLength": 331840,
            "target": 34962
        },
        {
            "buffer": 0,
            "byteOffset": 1718016,
            "byteLength": 331840,
            "target": 34962
        },
        {
            "buffer": 0,
            "byteOffset": 2049856,
            "byteLength": 974592,
            "target": 34963
        },
        {
            "buffer": 0,
            "byteOffset": 3024448,
            "byteLength": 29688,
            "target": 34962
        },
        {
            "buffer": 0,
            "byteOffset": 3054136,
            "byteLength": 29688,
            "target": 34962
        },
        {
            "buffer": 0,
            "byteOffset": 3083824,
            "byteLength": 19792,
            "target": 34962
        },
        {
            "buffer": 0,
            "byteOffset": 3103616,
            "byteLength": 55488,
            "target": 34963
        },
        {
            "buffer": 0,
            "byteOffset": 3159104,
            "byteLength": 841500,
            "target": 34962
        },
        {
            "buffer": 0,
            "byteOffset": 4000604,
            "byteLength": 841500,
            "target": 34962
        },
        {
            "buffer": 0,
            "byteOffset": 4842104,
            "byteLength": 561000,
            "target": 34962
        },
        {
            "buffer": 0,
            "byteOffset": 5403104,
            "byteLength": 1432440,
            "target": 34963
        },
        {
            "buffer": 0,
            "byteOffset": 6835544,
            "byteLength": 77424,
            "target": 34962
        },
        {
            "buffer": 0,
            "byteOffset": 6912968,
            "byteLength": 77424,
            "target": 34962
        },
        {
            "buffer": 0,
            "byteOffset": 6990392,
            "byteLength": 51616,
            "target": 34962
        },
        {
            "buffer": 0,
            "byteOffset": 7042008,
            "byteLength": 119616,
            "target": 34963
        }
    ],
    "materials": [
        {
            "name": "Dinklage",
            "pbrMetallicRoughness": {
                "baseColorFactor": [
                    0.11348199844360352,
                    0.11348199844360352,
                    0.11348199844360352,
                    1.0
                ],
                "metallicFactor": 0.0,
                "roughnessFactor": 0.5
            },
            "doubleSided": true
        }
    ],
    "meshes": [
        {
            "name": "meshes[0]",
            "primitives": [
                {
                    "mode": 4,
                    "material": 0,
                    "indices": 3,
                    "attributes": {
                        "POSITION": 0,
                        "NORMAL": 1,
                        "TEXCOORD_0": 2
                    }
                }
            ]
        },
        {
            "name": "meshes[1]",
            "primitives": [
                {
                    "mode": 4,
                    "material": 0,
                    "indices": 9,
                    "attributes": {
                        "POSITION": 4,
                        "NORMAL": 5,
                        "TEXCOORD_0": 6,
                        "TEXCOORD_1": 7,
                        "TEXCOORD_2": 8
                    }
                }
            ]
        },
        {
            "name": "meshes[2]",
            "primitives": [
                {
                    "mode": 4,
                    "material": 0,
                    "indices": 13,
                    "attributes": {
                        "POSITION": 10,
                        "NORMAL": 11,
                        "TEXCOORD_0": 12
                    }
                }
            ]
        },
        {
            "name": "meshes[3]",
            "primitives": [
                {
                    "mode": 4,
                    "material": 0,
                    "indices": 17,
                    "attributes": {
                        "POSITION": 14,
                        "NORMAL": 15,
                        "TEXCOORD_0": 16
                    }
                }
            ]
        },
        {
            "name": "meshes[4]",
            "primitives": [
                {
                    "mode": 4,
                    "material": 0,
                    "indices": 21,
                    "attributes": {
                        "POSITION": 18,
                        "NORMAL": 19,
                        "TEXCOORD_0": 20
                    }
                }
            ]
        }
    ],
    "nodes": [
        {
            "name": "DinklageLikenessSculpt",
            "children": [
                1,
                2,
                3,
                4,
                5
            ]
        },
        {
            "name": "DinklageEyes",
            "matrix": [
                1.0,
                0.0,
                0.0,
                0.0,
                0.0,
                1.0,
                0.0,
                0.0,
                0.0,
                0.0,
                1.0,
                0.0,
                0.0,
                0.043586365878582,
                0.06516893208026886,
                1.0
            ],
            "mesh": 0,
            "extras": {
                "name": "DinklageEyes"
            }
        },
        {
            "name": "DinklageHead",
            "mesh": 1,
            "extras": {
                "name": "DinklageHead"
            }
        },
        {
            "name": "DinklageHairBase",
            "mesh": 2,
            "extras": {
                "name": "DinklageHairBase"
            }
        },
        {
            "name": "DinklageHair",
            "matrix": [
                -0.7615228891372681,
                0.12555989623069763,
                0.6358599066734314,
                0.0,
                0.08552667498588562,
                0.9919441938400269,
                -0.09344494342803955,
                0.0,
                -0.6424704194068909,
                -0.01677747815847397,
                -0.7661269307136536,
                0.0,
                0.015573154203593731,
                0.1312355399131775,
                -0.03365036100149155,
                1.0
            ],
            "mesh": 3,
            "extras": {
                "name": "DinklageHair"
            }
        },
        {
            "name": "Brows",
            "matrix": [
                1.0,
                0.0,
                0.0,
                0.0,
                0.0,
                1.0,
                0.0,
                0.0,
                0.0,
                0.0,
                1.0,
                0.0,
                0.0,
                0.050648245960474014,
                0.06355901807546616,
                1.0
            ],
            "mesh": 4,
            "extras": {
                "name": "Brows"
            }
        }
    ],
    "scenes": [
        {
            "nodes": [
                0
            ]
        }
    ],
    "scene": 0
}